{
    "asset" : {
        "generator" : "Khronos glTF Blender I/O v3.2.43",
        "version" : "2.0"
    },
    "scene" : 0,
    "scenes" : [
        {
            "name" : "Scene",
            "nodes" : [
                0
            ]
        }
    ],
    "nodes" : [
        {
            "mesh" : 0,
            "name" : "CTM_To",
            "scale" : [
                30.626314163208008,
                30.626314163208008,
                30.626314163208008
            ]
        }
    ],
    "materials" : [
        {
            "doubleSided" : true,
            "name" : "Material.001",
            "pbrMetallicRoughness" : {
                "baseColorFactor" : [
                    0.800000011920929,
                    0.800000011920929,
                    0.800000011920929,
                    1
                ],
                "roughnessFactor" : 0
            }
        }
    ],
    "meshes" : [
        {
            "extras" : {
                "targetNames" : [
                    "Key 1"
                ]
            },
            "name" : "Plane.001",
            "primitives" : [
                {
                    "attributes" : {
                        "POSITION" : 0,
                        "NORMAL" : 1
                    },
                    "indices" : 2,
                    "material" : 0,
                    "targets" : [
                        {
                            "POSITION" : 3,
                            "NORMAL" : 4
                        }
                    ]
                }
            ],
            "weights" : [
                1
            ]
        }
    ],
    "accessors" : [
        {
            "bufferView" : 0,
            "componentType" : 5126,
            "count" : 30000,
            "max" : [
                0.2545551359653473,
                0.1679845154285431,
                -0.008920744992792606
            ],
            "min" : [
                -0.2471180558204651,
                -0.18471573293209076,
                -0.08908382803201675
            ],
            "type" : "VEC3"
        },
        {
            "bufferView" : 1,
            "componentType" : 5126,
            "count" : 30000,
            "type" : "VEC3"
        },
        {
            "bufferView" : 2,
            "componentType" : 5123,
            "count" : 179952,
            "type" : "SCALAR"
        },
        {
            "bufferView" : 3,
            "componentType" : 5126,
            "count" : 30000,
            "max" : [
                0.0029856152832508087,
                0.003849317319691181,
                0.00420350581407547
            ],
            "min" : [
                -0.002177707850933075,
                -0.003423672169446945,
                -0.004379577934741974
            ],
            "type" : "VEC3"
        },
        {
            "bufferView" : 4,
            "componentType" : 5126,
            "count" : 30000,
            "type" : "VEC3"
        }
    ],
    "bufferViews" : [
        {
            "buffer" : 0,
            "byteLength" : 360000,
            "byteOffset" : 0
        },
        {
            "buffer" : 0,
            "byteLength" : 360000,
            "byteOffset" : 360000
        },
        {
            "buffer" : 0,
            "byteLength" : 359904,
            "byteOffset" : 720000
        },
        {
            "buffer" : 0,
            "byteLength" : 360000,
            "byteOffset" : 1079904
        },
        {
            "buffer" : 0,
            "byteLength" : 360000,
            "byteOffset" : 1439904
        }
    ],
    "buffers" : [
        {
            "byteLength" : 1799904,
            "uri" : "data:application/octet-stream;base64,"
        }
    ]
}
